# xmcd CD database file
#
# Track frame offsets:
#	150
#	13898
#	40510
#	61462
#	81426
#	103556
#	120379
#	132870
#	143001
#	156691
#	165201
#	192959
#	245772
#	261524
#	273988
#
# Disc length: 3948 seconds
#
# Revision: 0
# Processed by: cddbd v1.5.2PL0 Copyright (c) Steve Scherf et al.
# Submitted via: CDex 1.51
#
DISCID=d20f6a0f
DTITLE=Kenny Ball and His Jazzmen - On Tour
DYEAR=2001
DGENRE=Jazz
TTITLE0=So Do I
TTITLE1=Panama Rag
TTITLE2=Aint Mishbehavin
TTITLE3=Für Elise
TTITLE4=Riverside Blues
TTITLE5=Sunday
TTITLE6=Basin St. Blues
TTITLE7=Michael Row the Boat Ashore
TTITLE8=Midnight in Moscow
TTITLE9=I Still Love You All
TTITLE10=Baby Doll
TTITLE11=Old Man Mose Is Dead
TTITLE12=As Time Goes By
TTITLE13=I Wanna Be Like You
TTITLE14=That's A Plenty
EXTD=YEAR: 2001
EXTT0=
EXTT1=
EXTT2=
EXTT3=
EXTT4=
EXTT5=
EXTT6=
EXTT7=
EXTT8=
EXTT9=
EXTT10=
EXTT11=
EXTT12=
EXTT13=
EXTT14=
PLAYORDER=
